<svg xmlns="http://www.w3.org/2000/svg" viewBox="0 0 145.16 112.27"><defs><style>.a{fill:#8ad7bc;}</style></defs><title>Element 5</title><path class="a" d="M15.88,105.07H6.2l-2.52,5.5H0l11.19-24,10.8,24H18.25Zm-1.39-3.2-3.36-7.69-3.51,7.69Z"/><path class="a" d="M24.84,96.3h3.3v1.27a6.38,6.38,0,0,1,1.61-1.3,3.74,3.74,0,0,1,1.7-.37,5.35,5.35,0,0,1,2.72.85l-1.51,3a3.11,3.11,0,0,0-1.83-.67q-2.68,0-2.69,4.07v7.4h-3.3Z"/><path class="a" d="M46.65,85.83H50v24.74H46.65v-1.5A6.16,6.16,0,0,1,42.24,111a6.27,6.27,0,0,1-4.87-2.14,8,8,0,0,1-1.92-5.45,7.67,7.67,0,0,1,1.92-5.33,6.16,6.16,0,0,1,9.28-.1Zm-7.83,17.56a5,5,0,0,0,1.1,3.34,3.59,3.59,0,0,0,2.84,1.3,3.78,3.78,0,0,0,3-1.26,5.41,5.41,0,0,0,0-6.62,3.72,3.72,0,0,0-2.93-1.27A3.64,3.64,0,0,0,40,100.17,4.76,4.76,0,0,0,38.82,103.39Z"/><path class="a" d="M67.57,104.21H57.35a4.33,4.33,0,0,0,1.14,2.8,3.49,3.49,0,0,0,2.59,1,3.39,3.39,0,0,0,2-.58,8.3,8.3,0,0,0,1.8-2.17l2.78,1.55a11,11,0,0,1-1.36,1.88A6.82,6.82,0,0,1,64.8,110a5.78,5.78,0,0,1-1.77.74A8.4,8.4,0,0,1,61,111a6.74,6.74,0,0,1-5.12-2,7.71,7.71,0,0,1-1.94-5.48A7.91,7.91,0,0,1,55.78,98a7.14,7.14,0,0,1,10-.06,7.9,7.9,0,0,1,1.82,5.52Zm-3.38-2.69a3.16,3.16,0,0,0-3.33-2.64,3.52,3.52,0,0,0-1.13.18,3.05,3.05,0,0,0-.95.53,3.11,3.11,0,0,0-.74.83,3.42,3.42,0,0,0-.47,1.1Z"/><path class="a" d="M71.58,96.3h3.31v1.32a5.42,5.42,0,0,1,3.9-1.72,4.94,4.94,0,0,1,3.88,1.57,6.43,6.43,0,0,1,1.2,4.35v8.75H80.56v-8A5.24,5.24,0,0,0,80,99.68a2.38,2.38,0,0,0-2.08-.82A2.56,2.56,0,0,0,75.56,100a7.56,7.56,0,0,0-.67,3.73v6.89H71.58Z"/><path class="a" d="M88.3,88l6.26,15.67L100.9,88h3.74L94.48,112.27,84.57,88Z"/><path class="a" d="M118.22,104.21H108a4.39,4.39,0,0,0,1.14,2.8,3.51,3.51,0,0,0,2.6,1,3.34,3.34,0,0,0,2-.58,8.3,8.3,0,0,0,1.8-2.17l2.79,1.55a11.55,11.55,0,0,1-1.36,1.88,7,7,0,0,1-1.54,1.29,5.94,5.94,0,0,1-1.78.74,8.38,8.38,0,0,1-2.06.24,6.75,6.75,0,0,1-5.13-2,7.7,7.7,0,0,1-1.93-5.48A7.9,7.9,0,0,1,106.42,98a7.14,7.14,0,0,1,10-.06,7.9,7.9,0,0,1,1.82,5.52Zm-3.39-2.69a3.16,3.16,0,0,0-3.32-2.64,3.48,3.48,0,0,0-1.13.18,3.22,3.22,0,0,0-1,.53,3.11,3.11,0,0,0-.74.83,3.65,3.65,0,0,0-.47,1.1Z"/><path class="a" d="M122.22,96.3h3.32v1.32a5.41,5.41,0,0,1,3.89-1.72,4.92,4.92,0,0,1,3.88,1.57,6.43,6.43,0,0,1,1.2,4.35v8.75H131.2v-8a5.26,5.26,0,0,0-.58-2.92,2.39,2.39,0,0,0-2.08-.82,2.55,2.55,0,0,0-2.33,1.09,7.45,7.45,0,0,0-.67,3.73v6.89h-3.32Z"/><path class="a" d="M142.59,99.38v11.19H139.3V99.38h-1.41V96.3h1.41V91.07h3.29V96.3h2.57v3.08Z"/><path class="a" d="M115.45,73.87c-.07-1.8-2.19-44.28-32.59-61a2,2,0,0,0-2.92,1.73V38.18a2,2,0,0,1-2.88,1.74l-1-.53a2,2,0,0,1-1-1.74V2a2,2,0,0,0-2-2h0a2,2,0,0,0-2,2V37.65a2,2,0,0,1-1,1.74l-1,.53a2,2,0,0,1-2.88-1.74V14.59a2,2,0,0,0-2.92-1.73,52.87,52.87,0,0,0-14.66,12h-9.7A2,2,0,0,1,37.27,24a3.82,3.82,0,0,0-3-1.48,3.62,3.62,0,1,0,0,7.24,3.79,3.79,0,0,0,3-1.45,2,2,0,0,1,1.43-.83l14.57,0c1.32.16,1.14,2.14.31,2.56-2.32,0-10.87,0-10.87,0-1.27,0-1.71,2.45,0,2.64H54.07a2,2,0,0,0,1.59-.85,3.77,3.77,0,0,1,3-1.45A3.86,3.86,0,0,1,60,30.6,3.65,3.65,0,0,1,62.47,34a3.73,3.73,0,0,1-3.78,3.62,3.79,3.79,0,0,1-3-1.48,2,2,0,0,0-1.57-.82H34.19c-1.29,0-1.72,2.51.07,2.64H50.11c1.79.13,1.35,2.61.07,2.65h-19a2,2,0,0,1-1.57-.83,3.81,3.81,0,0,0-3-1.47,3.62,3.62,0,1,0,0,7.23,3.77,3.77,0,0,0,3-1.45,2,2,0,0,1,1.59-.84h8.13c1.84.14,1.43,2.59.13,2.7H32c-1.18.2-1.53,2.5.19,2.63l7.71,0a2,2,0,0,0,1.59-.84,3.85,3.85,0,0,1,6.54.87,3.32,3.32,0,0,1,.27,1.3,3.53,3.53,0,0,1-.26,1.29,3.84,3.84,0,0,1-6.55.85,2,2,0,0,0-1.57-.82l-8.37,0A2,2,0,0,1,30,50.36a3.81,3.81,0,0,0-3-1.47,3.71,3.71,0,0,0-3.78,3.62A3.65,3.65,0,0,0,26,56a3.79,3.79,0,0,0,4-1.3,2,2,0,0,1,1.59-.84h0l10,0c1.62.13,1.22,2.61.06,2.65,0,0-4.33,0-8.43,0a87.39,87.39,0,0,0-2.38,15.59l-.23,1.83a2,2,0,0,0,2.71,1.9L64.88,63a2,2,0,0,0,1.23-1.82v-14a2,2,0,0,1,1-1.74l5-2.6a2,2,0,0,1,1.83,0l5,2.6a2,2,0,0,1,1,1.74v14A2,2,0,0,0,81.17,63L112.75,75.8a2,2,0,0,0,2.7-1.9ZM35.32,27.18a1.5,1.5,0,0,1-1.11.48,1.53,1.53,0,0,1,0-3.06,1.54,1.54,0,0,1,1.5,1.23,1.34,1.34,0,0,1,0,.35A1.4,1.4,0,0,1,35.32,27.18ZM27.65,42.93A1.53,1.53,0,1,1,28,41.57a1.43,1.43,0,0,1,.06.36A1.37,1.37,0,0,1,27.65,42.93Zm.4,10.58a1.43,1.43,0,0,1-.44.32,1.48,1.48,0,0,1-1.34,0,1.53,1.53,0,1,1,2.17-1.68,1.35,1.35,0,0,1-.39,1.36Z"/><circle class="a" cx="44.52" cy="49.81" r="1.53"/><circle class="a" cx="58.71" cy="33.92" r="1.53"/></svg>