<?xml version="1.0" encoding="utf-8"?>
<!-- Generator: Adobe Illustrator 24.2.1, SVG Export Plug-In . SVG Version: 6.00 Build 0)  -->
<svg version="1.1" id="Layer_1" xmlns="http://www.w3.org/2000/svg" xmlns:xlink="http://www.w3.org/1999/xlink" x="0px" y="0px"
	 viewBox="0 0 100 100" style="enable-background:new 0 0 100 100;" xml:space="preserve">
<style type="text/css">
	.st0{fill:#FFFFFF;}
</style>
<g>
	<g>
		<path class="st0" d="M95.8,32.2H82.3L67.9,13.6c-7.1-9.4-20.6-11-29.8-3.8c-1.5,1-2.7,2.3-4,3.8L19.8,32.2H4.2
			c-2.3,0-4.2,1.9-4.2,4.2s1.9,4.2,4.2,4.2h12.9C19.4,55.3,31,67,45.8,69.3v25.4h12.5V68.9c14-3.1,24.6-14.4,26.7-28.3h10.8
			c2.3,0,4.2-1.9,4.2-4.2S98.1,32.2,95.8,32.2z M58.3,61.8V50.9c0-3.5-2.7-6.2-6.2-6.2s-6.2,2.7-6.2,6.2l0,0v10.8
			c-6-3.5-8.1-11-4.6-17.1c3.5-6,11-8.1,17.1-4.6s8.1,11,4.6,17.1C61.9,59.1,60.2,60.5,58.3,61.8z"/>
	</g>
</g>
</svg>
